<svg xmlns="http://www.w3.org/2000/svg" width="175.784" height="144.999" viewBox="0 0 175.784 144.999"><defs><style>.a{fill:#022a39;}.b,.c{fill:#fff;}.c{stroke:#fff;stroke-linecap:round;stroke-linejoin:round;stroke-width:4px;}</style></defs><g transform="translate(-490.094 -1182.807)"><rect class="a" width="175.784" height="144.999" transform="translate(490.094 1182.807)"/><g transform="translate(501.981 1193.942)"><g transform="translate(9.661 2.342)"><path class="b" d="M568.15,1578.62l-.046,0-7.318-.539-.038,0-1.923-.143a.633.633,0,0,1-.586-.631v-7.929a.632.632,0,0,1,.695-.629c2.958.292,6.083.623,9.287.981a.633.633,0,0,1,.562.629v7.633a.633.633,0,0,1-.632.632Zm-7.328-1.806h.037l6.658.491v-6.386c-2.753-.306-5.443-.59-8.014-.847v6.643Z" transform="translate(-558.239 -1460.182)"/><path class="b" d="M652.587,1597.746a.615.615,0,0,1-.09-.006l-.129-.019a.632.632,0,1,1,.179-1.252l.129.019a.632.632,0,0,1-.089,1.258Z" transform="translate(-622.231 -1479.137)"/><path class="b" d="M652.383,1588.563h-.008a.633.633,0,0,1-.625-.64l.092-7.065a.633.633,0,1,1,1.265.017l-.092,7.063A.632.632,0,0,1,652.383,1588.563Z" transform="translate(-622.181 -1468.039)"/><path class="b" d="M683.206,1322.651a.633.633,0,0,1-.259-1.21l5.988-2.685v-4.768l-8.008,3.745a.632.632,0,0,1-.536-1.146l8.909-4.165a.632.632,0,0,1,.9.573v6.172a.633.633,0,0,1-.373.577l-6.362,2.853A.633.633,0,0,1,683.206,1322.651Z" transform="translate(-641.516 -1284.872)"/><path class="c" d="M703.343,1577.162" transform="translate(-657.46 -1465.94)"/><path class="b" d="M701.975,1594.062a.632.632,0,0,1-.632-.633v-4.521a.632.632,0,1,1,1.265,0v4.521A.632.632,0,0,1,701.975,1594.062Z" transform="translate(-656.092 -1473.539)"/><path class="b" d="M718.577,1366.015a.632.632,0,0,1-.632-.632v-26.414l-15.337-2.6v10.957a.632.632,0,1,1-1.265,0v-11.706a.632.632,0,0,1,.224-.483.625.625,0,0,1,.514-.141l16.6,2.811a.633.633,0,0,1,.527.624v26.948A.632.632,0,0,1,718.577,1366.015Z" transform="translate(-656.092 -1300.345)"/><path class="b" d="M848.124,1277.913a.637.637,0,0,1-.189-.029l-16.494-5.154a.632.632,0,0,1-.444-.6v-18.9a.633.633,0,0,1,.832-.6l16.494,5.5a.632.632,0,0,1,.433.6v18.556a.633.633,0,0,1-.632.632Zm-15.862-6.251,15.229,4.759v-17.239l-15.229-5.076Z" transform="translate(-744.748 -1244.004)"/><path class="b" d="M810.434,1323.592a.62.62,0,0,1-.15-.018l-16.837-4.124a.632.632,0,0,1-.126-1.183l12.027-5.842a.632.632,0,1,1,.553,1.138l-10.45,5.075,14.934,3.657,11.492-4.732a.632.632,0,1,1,.482,1.17l-11.683,4.811A.638.638,0,0,1,810.434,1323.592Z" transform="translate(-718.742 -1284.872)"/><path class="b" d="M793.6,1306.579a.632.632,0,0,1-.632-.632v-48.256a.632.632,0,0,1,.412-.593l12.025-4.466a.632.632,0,1,1,.441,1.186l-11.613,4.313v47.816A.632.632,0,0,1,793.6,1306.579Z" transform="translate(-718.745 -1244.002)"/><path class="b" d="M869.406,1287.722a.633.633,0,0,1-.632-.632v-16.274l-2.717-1.206a.632.632,0,0,1-.376-.578v-11.566l-10.335-3.369v1.56a.632.632,0,1,1-1.265,0v-2.432a.633.633,0,0,1,.828-.6l11.6,3.782a.633.633,0,0,1,.436.6v11.614l2.717,1.206a.632.632,0,0,1,.376.578v16.685A.632.632,0,0,1,869.406,1287.722Z" transform="translate(-760.533 -1244.002)"/><path class="b" d="M754.476,1264.147a.632.632,0,0,1-.632-.632V1235.7c0-.01,0-.019,0-.029v-9.607a.632.632,0,0,1,.861-.59l10.652,4.123a.632.632,0,0,1,.4.59v8.59a.633.633,0,0,1-.809.608l-9.843-2.858v26.991A.633.633,0,0,1,754.476,1264.147Zm.632-28.94,9.387,2.725v-7.315l-9.387-3.634Z" transform="translate(-691.991 -1225.427)"/><path class="c" d="M589.582,1328.338" transform="translate(-579.671 -1295.797)"/><path class="b" d="M708.835,1254.183a.632.632,0,0,1-.632-.632v-11a.633.633,0,0,1,.294-.534l1.331-.845v-7.343a.633.633,0,0,1,.3-.541l12.807-7.773a.632.632,0,1,1,.656,1.081l-12.5,7.588v7.334a.632.632,0,0,1-.293.534l-1.332.845v10.648A.632.632,0,0,1,708.835,1254.183Z" transform="translate(-660.783 -1225.428)"/><path class="b" d="M714.269,1262.961a.632.632,0,0,1-.264-1.207l12.714-5.841a.632.632,0,0,1,.528,1.149l-12.714,5.841A.631.631,0,0,1,714.269,1262.961Z" transform="translate(-664.498 -1246.233)"/><path class="b" d="M854.451,1356.441a.632.632,0,0,1-.632-.632v-12.931a.632.632,0,0,1,1.265,0v12.931A.633.633,0,0,1,854.451,1356.441Z" transform="translate(-760.353 -1305.306)"/><path class="b" d="M789.339,1266.7a.654.654,0,0,1-.125-.012l-1.718-.344a.632.632,0,1,1,.248-1.24l1.718.344a.632.632,0,0,1-.123,1.253Z" transform="translate(-714.655 -1252.55)"/></g><g transform="translate(0.474 4.116)"><path class="b" d="M591.6,1337.262a.631.631,0,0,1-.63-.574l-.005-.04c0-.019,0-.039-.009-.059a.482.482,0,0,1-.01-.053q-.2-1.374-.4-2.739l-.011-.077q-.236-1.586-.48-3.173l-.029-.19c-.147-.952-.295-1.907-.45-2.854-.182-1.158-.351-2.192-.517-3.163-.164-1-.348-2.078-.563-3.3-.2-1.156-.408-2.314-.623-3.446-.257-1.409-.476-2.558-.688-3.618-.288-1.466-.533-2.668-.771-3.783-.723-3.449-1.5-6.784-2.305-9.914-.148-.592-.3-1.176-.461-1.755-.859-3.228-1.792-6.358-2.772-9.3-1.107-3.345-2.3-6.514-3.542-9.419-.006-.015-.012-.031-.018-.047-.64-1.509-1.311-2.984-1.994-4.386-.772-1.6-1.6-3.183-2.451-4.7l-.033-.055a68.737,68.737,0,0,0-6.4-9.5,51.227,51.227,0,0,0-15.646-13.127,50.03,50.03,0,0,0-8.675-3.629,57.085,57.085,0,0,0-5.944-1.5,33,33,0,0,0-6.177-.594h-.173a.632.632,0,0,1,0-1.265h.171a34.345,34.345,0,0,1,6.423.617,58.513,58.513,0,0,1,6.077,1.538,51.358,51.358,0,0,1,8.894,3.722,52.476,52.476,0,0,1,16.032,13.446,69.886,69.886,0,0,1,6.513,9.662l.031.051c.878,1.554,1.715,3.158,2.5,4.784.7,1.432,1.383,2.941,2.037,4.484.006.014.012.028.017.043,1.25,2.927,2.448,6.115,3.562,9.477.988,2.97,1.928,6.124,2.794,9.375.157.584.316,1.175.465,1.771.811,3.144,1.591,6.5,2.317,9.963.239,1.12.485,2.328.774,3.8.213,1.065.433,2.22.69,3.633.215,1.135.426,2.3.625,3.46.216,1.222.4,2.3.565,3.306.166.973.336,2.012.518,3.171.156.947.3,1.906.452,2.862l.029.19q.243,1.591.482,3.18l.011.078q.2,1.36.4,2.724c.01.05.017.1.024.151l.006.044a.618.618,0,0,1,.008.1A.635.635,0,0,1,591.6,1337.262Z" transform="translate(-529.188 -1237.849)"/><path class="b" d="M592.7,1575.888a.632.632,0,0,1-.214-.037c-1.5-.411-8.254-1.492-8.323-1.5-5.052-.9-10.291-1.759-15.582-2.541-6.494-.965-13.292-1.85-20.2-2.633-.055-.005-.116-.011-.175-.021-3.193-.357-6.306-.686-9.253-.978-3.035-.3-6.122-.586-9.177-.845a.633.633,0,0,1,.107-1.261c3.061.26,6.155.545,9.2.847,2.957.292,6.081.623,9.286.981l.043.006c.029.005.06.007.09.01,6.953.786,13.765,1.674,20.273,2.641,5.3.784,10.555,1.64,15.608,2.546.273.043,6.97,1.116,8.484,1.541a.626.626,0,0,1,.307.183h0a.589.589,0,0,1,.038.047h0v0h0a.628.628,0,0,1,.081.149h0a.632.632,0,0,1-.592.857Z" transform="translate(-529.188 -1460.128)"/><path class="b" d="M597.961,1349.786a.632.632,0,0,1-.632-.632c0-3.032-.3-9.064-.538-11.525-.163-1.692-.3-2.778-.3-2.788q-.2-1.428-.406-2.883-.176-1.257-.36-2.52l-.049-.335c-.135-.927-.27-1.859-.414-2.793-.18-1.218-.365-2.432-.555-3.651l-.042-.268c-.162-1.028-.323-2.059-.493-3.087-.19-1.175-.388-2.347-.587-3.515q-.318-1.839-.65-3.673c-.226-1.262-.468-2.558-.72-3.852-.3-1.537-.557-2.816-.807-4.024-.294-1.412-.6-2.816-.9-4.175a178.014,178.014,0,0,0-6.845-23.6c-1.277-3.417-2.68-6.708-4.17-9.784-.836-1.7-1.688-3.329-2.529-4.824-10.521-18.729-25.2-28.379-44.87-29.5-.826-.045-1.569-.062-2.268-.054h-.008a.632.632,0,0,1-.007-1.265c.727-.008,1.5.01,2.353.056a52.725,52.725,0,0,1,27.667,9.179c7.055,4.931,13.19,11.985,18.236,20.966.853,1.515,1.716,3.161,2.563,4.89,1.509,3.114,2.928,6.442,4.218,9.895a179.274,179.274,0,0,1,6.895,23.762c.3,1.365.609,2.776.9,4.194.252,1.213.509,2.5.81,4.039.253,1.3.5,2.6.723,3.87q.333,1.838.653,3.684c.2,1.173.4,2.349.588,3.525.17,1.029.333,2.064.495,3.1l.042.268q.285,1.835.556,3.658c.143.935.279,1.869.415,2.8l.049.336c.121.843.243,1.685.36,2.524.138.969.273,1.932.407,2.894,0,.02.139,1.124.3,2.833.24,2.512.544,8.5.544,11.646A.632.632,0,0,1,597.961,1349.786Z" transform="translate(-529.188 -1231.037)"/><path class="b" d="M584.259,1562.811a.663.663,0,0,1-.109-.009c-4.906-.852-10.126-1.65-15.514-2.372q-1.983-.27-3.99-.526c-3.236-.409-6.516-.795-9.747-1.145-1.886-.205-3.96-.419-6.527-.674l-.143-.013c-1.778-.174-3.677-.352-5.977-.56q-1.643-.145-3.289-.281c-1.7-.145-3.521-.291-5.566-.449q-1.808-.139-3.622-.268a.633.633,0,0,1,.091-1.262q1.818.132,3.627.269c2.049.158,3.869.3,5.567.448,1.106.093,2.2.185,3.3.282,2.306.208,4.206.386,5.984.56l.144.013c2.576.256,4.654.471,6.543.676,3.239.352,6.527.737,9.771,1.148q2.015.257,4,.528c5.4.724,10.639,1.525,15.561,2.38a.632.632,0,0,1-.108,1.256Z" transform="translate(-529.188 -1452.73)"/><path class="b" d="M609.341,1490.19a.632.632,0,0,1-.465-1.061l31.257-33.957a.633.633,0,0,1,.931.857l-31.257,33.957A.629.629,0,0,1,609.341,1490.19Z" transform="translate(-583.563 -1384.159)"/><path class="b" d="M640.2,1510.721a.632.632,0,0,1-.471-1.053l23.347-26.139a.632.632,0,1,1,.943.843l-23.346,26.139A.63.63,0,0,1,640.2,1510.721Z" transform="translate(-604.668 -1403.544)"/><path class="b" d="M569.3,1469.118a.631.631,0,0,1-.448-1.076l0,0,42.415-41.878a.632.632,0,1,1,.89.9l-.462.458-41.951,41.419A.634.634,0,0,1,569.3,1469.118Z" transform="translate(-556.184 -1364.334)"/><path class="b" d="M541.283,1444.384a.633.633,0,0,1-.465-1.061l48.03-52.246a.633.633,0,1,1,.932.856l-48.03,52.246A.632.632,0,0,1,541.283,1444.384Z" transform="translate(-537.026 -1340.332)"/><path class="b" d="M529.82,1420.538a.633.633,0,0,1-.488-1.035l39.58-48.019c.011-.017.023-.032.036-.048l8.462-10.262a.632.632,0,0,1,1.137.378v0a.631.631,0,0,1-.145.4L569.96,1372.2a.572.572,0,0,1-.035.048l-39.616,48.062A.633.633,0,0,1,529.82,1420.538Z" transform="translate(-529.188 -1319.852)"/><path class="b" d="M529.82,1386.3a.632.632,0,0,1-.488-1.034l18.477-22.53c.01-.015.022-.03.034-.045l25.09-30.591a.633.633,0,0,1,.978.8l-25.054,30.548a.572.572,0,0,1-.038.051l-.046.056-18.462,22.512A.632.632,0,0,1,529.82,1386.3Z" transform="translate(-529.188 -1299.982)"/><path class="b" d="M529.82,1352.205a.633.633,0,0,1-.506-1.012l18.455-24.656.019-.027,18.632-24.891a.632.632,0,0,1,1.012.758l-18.622,24.878-.019.027-18.465,24.669A.631.631,0,0,1,529.82,1352.205Z" transform="translate(-529.188 -1279.128)"/><path class="b" d="M529.82,1322.754a.632.632,0,0,1-.517-1L559.353,1279a.632.632,0,1,1,1.035.727l-30.05,42.755A.632.632,0,0,1,529.82,1322.754Z" transform="translate(-529.188 -1263.652)"/><path class="b" d="M529.82,1292.65a.625.625,0,0,1-.349-.106.632.632,0,0,1-.177-.877l21.267-32.038a.633.633,0,0,1,1.054.7l-21.267,32.038A.631.631,0,0,1,529.82,1292.65Z" transform="translate(-529.188 -1250.395)"/><path class="b" d="M529.82,1268.675a.632.632,0,0,1-.534-.971l12.482-19.685a.633.633,0,0,1,1.068.678l-12.483,19.685A.631.631,0,0,1,529.82,1268.675Z" transform="translate(-529.188 -1242.448)"/><path class="b" d="M529.82,1242.346a.632.632,0,0,1-.545-.953l.171-.291c.011-.018.023-.036.035-.053l.021-.037a.632.632,0,1,1,1.1.628l-.056.1a.579.579,0,0,1-.043.066l-.136.232A.632.632,0,0,1,529.82,1242.346Z" transform="translate(-529.188 -1237.639)"/><path class="b" d="M726.162,1562.03a.632.632,0,0,1-.632-.633,169.567,169.567,0,0,0-.965-19.264.632.632,0,1,1,1.257-.139,170.708,170.708,0,0,1,.973,19.4A.632.632,0,0,1,726.162,1562.03Z" transform="translate(-662.781 -1443.281)"/><path class="b" d="M672.526,1531.9a.632.632,0,0,1-.487-1.036l15.253-18.4a.632.632,0,0,1,.974.807l-15.253,18.4A.63.63,0,0,1,672.526,1531.9Z" transform="translate(-626.768 -1423.318)"/></g><g transform="translate(54.912 43.928)"><path class="b" d="M724.832,1542.127h0a.632.632,0,1,1,.635-.632A.632.632,0,0,1,724.827,1542.127Z" transform="translate(-716.969 -1482.704)"/><path class="b" d="M723.7,1386.65a.632.632,0,0,1-.384-1.135,55.326,55.326,0,0,1,5.061-3.475,27.009,27.009,0,0,1,4.841-2.244,75.089,75.089,0,0,1,9.889-2.565c.871-.184,1.727-.364,2.559-.55a29.915,29.915,0,0,0,7.214-2.3,38.906,38.906,0,0,0,5.183-3.876c1.919-1.578,4.095-3.368,6.615-5.161a48.894,48.894,0,0,1,14.968-7.508c1.261-.362,2.526-.659,3.759-.884a.632.632,0,0,1,.226,1.244c-1.192.217-2.416.5-3.637.855a47.656,47.656,0,0,0-14.583,7.323c-2.485,1.768-4.642,3.542-6.546,5.107a38.693,38.693,0,0,1-5.391,4.015,30.94,30.94,0,0,1-7.534,2.422c-.836.186-1.7.368-2.572.553a74.2,74.2,0,0,0-9.723,2.518,25.743,25.743,0,0,0-4.618,2.139,53.987,53.987,0,0,0-4.944,3.4A.628.628,0,0,1,723.7,1386.65Z" transform="translate(-716.199 -1356.939)"/><path class="b" d="M726.553,1404.868a.633.633,0,0,1-.351-1.159c2.248-1.5,4.308-2.743,6.124-3.708a24.139,24.139,0,0,1,2.835-1.272,65.768,65.768,0,0,1,11.316-2.825l1.159-.219a39.519,39.519,0,0,0,8.72-2.333,37.6,37.6,0,0,0,5.624-3.829c1.382-1.047,2.948-2.233,4.654-3.425a63.626,63.626,0,0,1,6.724-4.155,48.364,48.364,0,0,1,8.225-3.47c1.3-.406,2.526-.731,3.755-.995a.632.632,0,1,1,.265,1.236c-1.191.256-2.382.571-3.642.966a47.057,47.057,0,0,0-8.011,3.381,62.213,62.213,0,0,0-6.59,4.074c-1.686,1.178-3.242,2.356-4.615,3.4a37.484,37.484,0,0,1-5.856,3.969,40.476,40.476,0,0,1-9.016,2.428l-1.161.219a64.762,64.762,0,0,0-11.1,2.764,22.724,22.724,0,0,0-2.69,1.207c-1.779.946-3.8,2.172-6.016,3.644A.63.63,0,0,1,726.553,1404.868Z" transform="translate(-718.148 -1370.974)"/><path class="b" d="M729.111,1422.986a.632.632,0,0,1-.311-1.183c2.878-1.622,5.26-2.86,7.282-3.787.264-.122.531-.237.808-.351,3.821-1.588,8.438-2.34,12.512-3l.372-.061a51.041,51.041,0,0,0,9.856-2.224,37,37,0,0,0,6.145-3.777c.834-.578,1.7-1.176,2.616-1.795a69.517,69.517,0,0,1,8.123-4.8,54.729,54.729,0,0,1,6.8-2.829c1.257-.422,2.518-.791,3.747-1.1a.633.633,0,0,1,.3,1.228c-1.2.3-2.425.656-3.65,1.067a53.439,53.439,0,0,0-6.649,2.765,68.344,68.344,0,0,0-7.975,4.71c-.913.615-1.779,1.215-2.6,1.784a37.507,37.507,0,0,1-6.4,3.914,51.833,51.833,0,0,1-10.119,2.3l-.372.061c-4.005.653-8.545,1.392-12.231,2.923-.26.108-.511.215-.762.332-1.993.914-4.344,2.137-7.191,3.741A.629.629,0,0,1,729.111,1422.986Z" transform="translate(-719.898 -1385.06)"/><path class="b" d="M731.392,1441.023a.633.633,0,0,1-.268-1.206c2.789-1.3,5.255-2.39,7.33-3.23l.17-.068c.35-.139.69-.274,1.023-.4a52.868,52.868,0,0,1,11.329-2.468l1.609-.22a59.051,59.051,0,0,0,10.125-1.93,36.355,36.355,0,0,0,6.551-3.594l.707-.443a80.489,80.489,0,0,1,9.51-5.292c1.875-.851,3.638-1.565,5.39-2.184,1.3-.455,2.524-.836,3.744-1.165a.632.632,0,1,1,.33,1.221c-1.19.321-2.385.694-3.654,1.137-1.716.606-3.446,1.307-5.287,2.143a78.125,78.125,0,0,0-9.361,5.211l-.707.442a36.94,36.94,0,0,1-6.821,3.722,59.843,59.843,0,0,1-10.357,1.984q-.8.109-1.606.22a51.84,51.84,0,0,0-11.048,2.4c-.328.126-.664.26-1.009.4l-.167.066c-2.051.831-4.5,1.909-7.266,3.2A.635.635,0,0,1,731.392,1441.023Z" transform="translate(-721.457 -1399.237)"/><path class="b" d="M733.453,1458.929a.633.633,0,0,1-.223-1.224c2.416-.911,4.722-1.742,6.668-2.4,1.112-.38,2.181-.727,3.176-1.032a55.028,55.028,0,0,1,9.328-1.674c.9-.1,1.8-.2,2.706-.3a69.576,69.576,0,0,0,10.534-1.635,28.368,28.368,0,0,0,5.763-2.7q.7-.387,1.425-.8a86.6,86.6,0,0,1,9.465-4.8c1.426-.592,2.73-1.094,3.986-1.534,1.282-.458,2.5-.854,3.732-1.208a.632.632,0,1,1,.35,1.215c-1.2.347-2.4.734-3.66,1.185-1.238.434-2.52.927-3.923,1.51a85.591,85.591,0,0,0-9.329,4.734q-.733.413-1.428.8a28.832,28.832,0,0,1-6.044,2.813,70.325,70.325,0,0,1-10.736,1.674c-.9.1-1.8.193-2.7.3a53.916,53.916,0,0,0-9.1,1.627c-.981.3-2.037.644-3.137,1.02-1.934.656-4.226,1.482-6.629,2.388A.625.625,0,0,1,733.453,1458.929Z" transform="translate(-722.867 -1413.462)"/><path class="b" d="M735.309,1476.674a.633.633,0,0,1-.178-1.24c2.456-.722,4.387-1.268,6.076-1.719,2.037-.551,3.772-.984,5.155-1.287a60.14,60.14,0,0,1,7.326-.988c1.15-.1,2.325-.188,3.5-.277a85.07,85.07,0,0,0,11.245-1.324,21.476,21.476,0,0,0,4.281-1.593c1.045-.485,2.157-1.04,3.334-1.627a92.091,92.091,0,0,1,8.925-4.042c.774-.289,1.675-.623,2.579-.931,1.315-.458,2.534-.856,3.72-1.213a.632.632,0,1,1,.365,1.211c-1.169.353-2.37.744-3.673,1.2-.893.3-1.784.634-2.548.92a91.1,91.1,0,0,0-8.8,3.988c-1.185.592-2.305,1.151-3.366,1.642a22.628,22.628,0,0,1-4.54,1.681,85.956,85.956,0,0,1-11.423,1.35c-1.174.088-2.345.177-3.49.275a59.25,59.25,0,0,0-7.163.963c-1.363.3-3.078.728-5.1,1.273-1.681.449-3.6.993-6.047,1.712A.639.639,0,0,1,735.309,1476.674Z" transform="translate(-724.136 -1427.69)"/><path class="b" d="M737,1494.24a.633.633,0,0,1-.136-1.25c1.546-.342,3.573-.785,5.536-1.181,2.981-.6,5.384-1.022,7.142-1.246,1.381-.175,3.022-.308,5.322-.43,1.231-.062,2.51-.114,3.812-.165a104.015,104.015,0,0,0,12.436-.973,17.71,17.71,0,0,0,2.821-.76c1.631-.563,3.45-1.355,5.375-2.193,2.453-1.068,5.233-2.278,8.232-3.279.389-.13.783-.26,1.177-.389,1.251-.411,2.5-.8,3.715-1.166a.632.632,0,1,1,.362,1.212c-1.2.359-2.443.748-3.682,1.155-.391.129-.784.258-1.172.388-2.946.983-5.7,2.181-8.128,3.238-1.948.848-3.789,1.649-5.467,2.229a18.873,18.873,0,0,1-3.024.812,104.8,104.8,0,0,1-12.595.989c-1.3.052-2.571.1-3.8.165-2.266.12-3.879.25-5.228.421-1.727.221-4.1.635-7.051,1.232-1.954.395-3.973.836-5.514,1.177A.639.639,0,0,1,737,1494.24Z" transform="translate(-725.296 -1441.895)"/><path class="b" d="M738.76,1512.019a.632.632,0,0,1-.082-1.259c1.6-.213,3.294-.439,4.966-.67,4.117-.58,7.072-1.056,9.031-1.454a23.966,23.966,0,0,1,3.393-.4c2.273-.125,4.783-.056,7.44.015a74.294,74.294,0,0,0,10.332-.182c.41-.049.86-.125,1.375-.231a56.753,56.753,0,0,0,7.41-2.392c2.312-.856,4.7-1.741,7.315-2.51l.106-.032.085-.025c1.175-.345,2.338-.683,3.514-1.017a.632.632,0,1,1,.345,1.217q-1.758.5-3.48,1.006c-.021.008-.066.021-.111.034l-.082.024c-2.59.763-4.96,1.64-7.253,2.489a57.483,57.483,0,0,1-7.59,2.444c-.552.115-1.036.2-1.483.25a75.345,75.345,0,0,1-10.516.191c-2.631-.072-5.116-.138-7.337-.016a22.759,22.759,0,0,0-3.211.372c-1.983.4-4.962.883-9.106,1.467-1.677.231-3.37.458-4.975.671A.7.7,0,0,1,738.76,1512.019Z" transform="translate(-726.496 -1456.021)"/><path class="b" d="M740.192,1529.081a.632.632,0,0,1-.046-1.263l3.856-.288.66-.049c3.42-.254,8.107-.618,11.023-.914.411-.04.858-.07,1.37-.091,2.336-.092,5.138.095,8.1.292a84.318,84.318,0,0,0,11.118.26h.016l.061,0a46.476,46.476,0,0,0,9.448-2.248c1.646-.5,3.347-1.022,5.13-1.5.531-.144,1.067-.284,1.612-.419.7-.171,1.4-.346,2.1-.522a.632.632,0,0,1,.309,1.227c-.7.176-1.4.352-2.1.523-.535.133-1.061.27-1.584.412-1.764.476-3.456.993-5.091,1.492a47.894,47.894,0,0,1-9.739,2.3h-.017l-.063,0a85.248,85.248,0,0,1-11.277-.26c-2.932-.2-5.7-.379-7.971-.29-.486.02-.91.048-1.294.085-2.929.3-7.628.663-11.055.917l-.66.05c-1.317.1-2.621.2-3.857.288Z" transform="translate(-727.476 -1470.018)"/><path class="b" d="M710.286,1554.358a.631.631,0,0,1-.157-.02c-1.21-.309-8.178-1.362-8.248-1.372a.632.632,0,0,1-.432-.976l7.2-10.8a.628.628,0,0,1,.554-.33.635.635,0,0,1,.531.983l-6.68,10.02c2,.307,6.393.994,7.389,1.248a.632.632,0,0,1-.156,1.245Z" transform="translate(-701.343 -1482.704)"/><path class="b" d="M776.35,1547.024a111,111,0,0,1-17.944-1.507c-.135-.025-.275-.047-.418-.07l-.21-.034a76.194,76.194,0,0,0-12.242-.2c-1.473.057-2.917.14-4.135.212a.632.632,0,1,1-.076-1.262c1.225-.073,2.678-.156,4.16-.213a76.053,76.053,0,0,1,12.485.214l.22.036c.152.024.3.049.442.075a109.765,109.765,0,0,0,18.484,1.483q.778-.007,1.542-.028a54,54,0,0,0,10.4-1.845c.883-.213,1.781-.428,2.695-.64,1.161-.268,2.116-.477,3.009-.656.235-.046.467-.1.7-.146a.633.633,0,1,1,.267,1.236c-.24.052-.48.1-.72.15-.877.176-1.822.382-2.97.647-.91.211-1.8.426-2.684.637a54.817,54.817,0,0,1-10.663,1.88q-.776.021-1.566.028C776.87,1547.023,776.61,1547.024,776.35,1547.024Z" transform="translate(-728.276 -1483.774)"/><path class="b" d="M781.421,1561.846l-.38,0c-1.011-.014-2.044-.047-3.069-.1a77.118,77.118,0,0,1-16.781-2.407,18.6,18.6,0,0,0-2.524-.539,89.059,89.059,0,0,0-12.273-.635c-1.245,0-2.5.017-3.726.051h-.018a.632.632,0,0,1-.017-1.265c1.239-.034,2.5-.051,3.758-.051a90.69,90.69,0,0,1,12.467.65,19.819,19.819,0,0,1,2.7.58,75.841,75.841,0,0,0,16.475,2.354c1.011.051,2.029.083,3.025.1a64.454,64.454,0,0,0,11.563-1.364l.048-.009c1.177-.205,2.44-.424,3.708-.625a.632.632,0,1,1,.2,1.249c-1.26.2-2.518.418-3.689.622l-.048.009A69.019,69.019,0,0,1,781.421,1561.846Z" transform="translate(-729.156 -1493.669)"/><path class="b" d="M785.3,1573.035c-.724,0-1.442-.017-2.145-.056-1.459-.08-2.995-.2-4.563-.354-6.244-.634-11.656-1.8-14.851-3.193a20.148,20.148,0,0,0-4.435-1.167,92.192,92.192,0,0,0-12.283-1c-1.1-.03-2.255-.05-3.427-.06a.632.632,0,0,1,.005-1.265h.005c1.18.01,2.341.03,3.451.06a93.462,93.462,0,0,1,12.461,1.021,21.039,21.039,0,0,1,4.728,1.255c3.08,1.345,8.354,2.473,14.471,3.094,1.548.153,3.065.27,4.506.349a66.637,66.637,0,0,0,10.14-.455c1.153-.118,2.318-.248,3.491-.379l.2-.022a.632.632,0,0,1,.14,1.257l-.2.023c-1.177.132-2.346.262-3.5.38A80.911,80.911,0,0,1,785.3,1573.035Z" transform="translate(-729.805 -1499.85)"/><path class="b" d="M791.658,1584.24c-2,0-3.776-.061-5.447-.183h-.022c-.354-.028-.7-.056-1.049-.089-2.1-.195-4.145-.448-6.065-.754-4-.639-9.482-1.822-12.906-3.834a21.006,21.006,0,0,0-6.351-1.962,98.223,98.223,0,0,0-12.29-1.308l-.231-.011c-.489-.024-.965-.047-1.431-.067h-1.5a.632.632,0,1,1,0-1.265h1.529c.5.021.974.043,1.465.068l.234.011a99.453,99.453,0,0,1,12.457,1.328,22.139,22.139,0,0,1,6.759,2.114c2.577,1.514,6.888,2.785,12.466,3.676,1.892.3,3.9.552,5.983.744.339.032.674.059,1.017.086h.016a96.807,96.807,0,0,0,11.332.036.64.64,0,0,1,.659.6.632.632,0,0,1-.6.659C795.427,1584.192,793.451,1584.24,791.658,1584.24Z" transform="translate(-730.328 -1505.888)"/><path class="b" d="M771.44,1590.019a.631.631,0,0,1-.283-.067,16.131,16.131,0,0,1-2.43-1.474c-1.513-1.132-4.3-2.106-8.269-2.9-3.826-.76-11.68-1.681-15.2-1.957a.632.632,0,0,1,.1-1.261c3.546.278,11.475,1.208,15.344,1.977,4.161.827,7.115,1.878,8.781,3.124a14.887,14.887,0,0,0,2.239,1.355.632.632,0,0,1-.283,1.2Z" transform="translate(-730.975 -1511.082)"/></g><path class="b" d="M649.921,1341.36H528.795a1.107,1.107,0,0,1-1.107-1.107V1219.128a1.107,1.107,0,0,1,1.107-1.107H649.921a1.107,1.107,0,0,1,1.107,1.107v121.126A1.107,1.107,0,0,1,649.921,1341.36ZM529.9,1339.147H648.814V1220.234H529.9Z" transform="translate(-527.688 -1218.021)"/></g><g transform="translate(632.906 1193.303)"><path class="b" d="M943.077,1260.3h-1.346v-8.289h1.346Z" transform="translate(-941.731 -1240.622)"/><g transform="translate(0.291 0)"><path class="b" d="M944.2,1220.384l.694,4.11h1.1l.694-4.012v4.012h1.551V1216h-2l-.8,4.53-.786-4.53h-2.008v8.495H944.2Z" transform="translate(-942.652 -1216)"/><path class="b" d="M965.434,1222.564h1.124l.269,1.931h1.559l-1.573-8.411L966.8,1216h-1.516l-1.589,8.495h1.484Zm.571-3.644.309,2.243h-.626Z" transform="translate(-957.039 -1216)"/><path class="b" d="M985.485,1222.023v-3.552a5.1,5.1,0,0,0-.11-1.017A1.757,1.757,0,0,0,983.7,1216h-2.536v8.495H983.7C984.8,1224.495,985.485,1223.548,985.485,1222.023Zm-2.767-4.634h.7c.268,0,.576.123.576,1.082v3.552c0,.959-.308,1.082-.576,1.082h-.7Z" transform="translate(-968.988 -1216)"/><path class="b" d="M1000.949,1223.1h-2.056v-2.495h1.367v-1.389h-1.367v-1.831h1.906V1216h-3.457v8.495h3.607Z" transform="translate(-980.048 -1216)"/><path class="b" d="M951.265,1256.6h-.021l-1.249-4.595h-1.421v8.289h1.346v-4.749h.022l1.324,4.749h1.346v-8.289h-1.346Z" transform="translate(-946.701 -1240.623)"/><path class="b" d="M971.486,1260.3v-7.117h1.389v-1.172h-4.113v1.172h1.378v7.117Z" transform="translate(-960.506 -1240.623)"/><path class="b" d="M986.339,1255.23h-1.421v-3.221h-1.346v8.289h1.346v-3.9h1.421v3.9h1.346v-8.289h-1.346Z" transform="translate(-970.632 -1240.623)"/><path class="b" d="M1000.511,1259.115v-2.7h1.367v-1.184h-1.367v-2.037h1.906v-1.184h-3.251v8.289h3.4v-1.184Z" transform="translate(-981.295 -1240.623)"/><path class="b" d="M964.449,1291.165H944.207v3.529h10.7l-10.7,2.985v3.494h20.242v-3.529H954.138l10.311-2.8Z" transform="translate(-943.715 -1267.397)"/><path class="b" d="M959.559,1327.715H948.044c-2.145,0-4.649,1.307-4.649,4.99a4.589,4.589,0,0,0,4.649,4.835h11.515a4.561,4.561,0,0,0,4.592-4.835C964.151,1329.022,961.677,1327.715,959.559,1327.715Zm1.509,4.99c0,.845-1.016,1.306-1.537,1.306H948.1c-.532,0-1.566-.461-1.566-1.306a1.523,1.523,0,0,1,1.566-1.462h11.487A1.524,1.524,0,0,1,961.068,1332.705Z" transform="translate(-943.16 -1292.389)"/><path class="b" d="M944.207,1371.07v3.682l8.6-3.453c1,1.708,3.106,2.685,5.793,2.685,3.606,0,5.846-1.813,5.846-4.732v-5.561H944.207v3.5h8.038v.793Zm17.1-3.876v1.954c0,1-.86,1.462-2.706,1.462-2.767,0-3.048-.478-3.048-2.525v-.892Z" transform="translate(-943.715 -1316.99)"/><path class="b" d="M944.207,1404.137h17.131v3.343h3.112v-10.189h-3.112v3.317H944.207Z" transform="translate(-943.715 -1339.965)"/><path class="b" d="M944.207,1439.6v3.529h20.242V1439.6H956.7v-3.131h7.753v-3.529H944.207v3.529h9.378v3.131Z" transform="translate(-943.715 -1364.34)"/><path class="b" d="M944.207,1486.982h3.14v-4.95h6.21v3.291h3.14v-3.291h4.613v4.587h3.14V1478.5H944.207Z" transform="translate(-943.715 -1395.497)"/><path class="b" d="M944.207,1514.277v3.54l20.242-3.786v-3.479l-20.071-3.754-.171-.032v3.359l4.646.622v2.883Zm7.815-1.206v-1.741l6.241.882Z" transform="translate(-943.715 -1414.822)"/><path class="b" d="M959.5,1543.163c-2.514,0-3.311.622-5.057,1.986-.193.15-.4.311-.626.487l-3.044,2.69a3.982,3.982,0,0,1-2.619,1.031c-1,0-1.68-.525-1.68-1.307,0-.818.628-1.307,1.68-1.307h2v-3.555h-2.226c-2.763,0-4.62,1.953-4.62,4.861s1.9,4.939,4.62,4.939c2.376,0,3.457-.77,5.164-2.131l4.077-3.239a3.318,3.318,0,0,1,2.361-.875,1.323,1.323,0,0,1,1.423,1.307c0,.769-.831,1.307-2.021,1.307h-.971v3.529H959.5a4.514,4.514,0,0,0,4.592-4.836C964.089,1545.127,962.244,1543.163,959.5,1543.163Z" transform="translate(-943.098 -1439.71)"/><path class="b" d="M961.338,1579.1H944.207v3.529h17.131v3.343h3.112v-10.189h-3.112Z" transform="translate(-943.715 -1462.013)"/></g></g></g></svg>