<svg xmlns="http://www.w3.org/2000/svg" width="492.898" height="144.999" viewBox="0 0 492.898 144.999"><defs><style>.a{fill:#fff;}</style></defs><g transform="translate(-1563.592 -1238.592)"><path class="a" d="M2401.059,1304.417c-3.013.174-6.03.3-9.039.533-6.4.493-12.786,1.042-19.18,1.563-.322.026-.647,0-1.145,0-.23-4.432-.457-8.817-.7-13.485l30.8-1.094c0-1.862,0-3.765,0-5.667,0-2.287,0-2.307-2.227-2.32-10.3-.062-20.6-.25-30.9-.128-10.99.131-21.977.554-32.964.859-6.29.175-12.58.37-18.871.551-.639.018-1.28,0-1.967,0-.043-.4-.091-.633-.092-.869-.006-3.885.016-7.77-.024-11.653-.009-.88.315-1.12,1.145-1.108,10.585.156,21.171.267,31.756.432,8.786.137,17.576.193,26.354.54,8.447.334,16.88,1,25.32,1.5a4.728,4.728,0,0,0,1.03-.165l-.027.011c.077.392.175.78.227,1.175q.519,3.988,1.021,7.978a7.131,7.131,0,0,0,.456-2.288,74.842,74.842,0,0,1,2.607-15.3,159.624,159.624,0,0,1,7.773-20.6c.908-2.088,1.768-4.2,2.65-6.3H2434.2c-2.858,3.874-5.682,7.775-8.583,11.618-5.462,7.236-11.041,14.391-15.569,22.277a68.556,68.556,0,0,0-8.768,28.057c-.122,1.3-.164,2.6-.244,3.908Z" transform="translate(-440.03)"/><path class="a" d="M2400.338,1273.914c-.478-1.077-1.027-2.129-1.412-3.238a1.8,1.8,0,0,0-1.646-1.35c-5.545-.743-11.066-1.743-16.633-2.239-13.266-1.182-26.553-2.124-39.831-3.176-8.268-.655-16.534-1.351-24.8-1.979-1-.076-1.308-.4-1.293-1.4.053-3.592.021-7.185.021-10.907a8.763,8.763,0,0,1,1.029.14c12.132,3.262,24.515,5.238,36.893,7.243,14.673,2.377,29.376,4.613,43.688,8.789a2.393,2.393,0,0,0,.5,0c-.622-1.434-1.192-2.815-1.815-4.171a130.958,130.958,0,0,1-7.98-22.477,4.565,4.565,0,0,0-.224-.565h15.211c-.041.4-.061.811-.126,1.211a129.694,129.694,0,0,0-2.042,25.943c.108,2.728.29,5.453.437,8.179Z" transform="translate(-440.01)"/><path class="a" d="M2374.781,1238.592c1.633,2.238,3.162,4.561,4.919,6.7,4.752,5.773,9.6,11.463,14.41,17.193.361.431.667.91,1.135,1.555a6.469,6.469,0,0,1-.768-.177c-11.677-4.661-23.828-7.73-35.983-10.813-9.177-2.328-18.371-4.633-27.42-7.4-5.282-1.615-10.3-4.11-15.418-6.237a4.367,4.367,0,0,1-.985-.818H2342.4a10.973,10.973,0,0,0,1.05.777,160.638,160.638,0,0,0,20.65,9.549c9.244,3.7,18.58,7.19,27.3,12.071a2.3,2.3,0,0,0,.575.146l.067.076-.09-.055c-1.823-1.363-3.569-2.85-5.485-4.067-6.719-4.263-13.531-8.378-20.233-12.665-2.806-1.795-5.427-3.879-8.132-5.832Z" transform="translate(-439.983)"/><path class="a" d="M2609.976,1500.338c-.681-1.25-1.331-2.517-2.047-3.746q-12.755-21.851-25.534-43.688c-2.064-3.523-4.215-6.995-6.32-10.494-.207-.343-.375-.711-.634-1.208l7.065-3.315c1.373,2.217,2.646,4.391,4.032,6.492q12.617,19.131,25.252,38.25a4.161,4.161,0,0,1,.647,2.138c.042,5.19,0,10.381-.007,15.572Z" transform="translate(-592.741 -116.747)"/><path class="a" d="M2495.553,1428.029c2.768-5.269,6.878-9.4,11.314-13.237,7.689-6.645,16.378-11.78,25.354-16.431,10.227-5.3,20.531-10.449,30.8-15.66.247-.125.516-.205.956-.377,0,1.938.035,3.753-.039,5.564-.011.265-.5.592-.831.752-9.941,4.773-19.9,9.508-29.836,14.293-9.651,4.648-19.192,9.5-27.838,15.907-1.837,1.361-3.581,2.85-5.349,4.3a7.855,7.855,0,0,0-.866.988l.032-.029-.275.277.033-.029-.771.514.031-.025-.275.275.024-.034a6.373,6.373,0,0,0-1.027,1.685,41.4,41.4,0,0,0,.437,20.234c1.714,6.51,4.608,12.549,7.39,18.635.318.695.535,1.436.8,2.155h-5.4c-.131-.338-.252-.68-.4-1.013-1.376-3.185-2.873-6.324-4.11-9.561-2.4-6.271-3.582-12.777-2.563-19.471C2493.65,1434.46,2494.734,1431.265,2495.553,1428.029Z" transform="translate(-544.321 -84.198)"/><path class="a" d="M2550.619,1514.81c-1.1-3.2-2.03-6.461-3.331-9.572-3.76-8.994-7.728-17.9-11.5-26.894-1.669-3.983-3.039-8.09-4.579-12.128a1.033,1.033,0,0,1,.593-1.541c1.235-.62,2.42-1.341,3.738-2.083.505,1.309.913,2.54,1.444,3.715,3.712,8.214,7.55,16.373,11.151,24.636,3.324,7.628,6.4,15.362,9.588,23.05.108.262.169.545.251.818Z" transform="translate(-566.751 -131.219)"/><path class="a" d="M2590.19,1535.052l-15.437-34.47,6.044-3.435c6.948,12.522,13.4,25.173,19.7,37.906Z" transform="translate(-592.338 -151.462)"/><path class="a" d="M2531.581,1521.3q-5.482-13.7-10.957-27.4a75.694,75.694,0,0,1-4.841-17.171,1.322,1.322,0,0,1,.678-1.606c.779-.436,1.506-.961,2.265-1.453.135.129.271.2.293.29,1.844,7.836,5.188,15.109,8.293,22.486,3.244,7.707,6.193,15.538,9.258,23.32a13.44,13.44,0,0,1,.409,1.531Z" transform="translate(-557.772 -137.713)"/><path class="a" d="M2506.369,1482.783l.988-.337c.33,11.778,5.209,22.115,9.679,32.582,1.393,3.263,2.648,6.584,3.944,9.888a11.3,11.3,0,0,1,.371,1.525h-4.662c-1.124-2.708-2.268-5.406-3.366-8.125-1.939-4.8-3.992-9.561-5.739-14.432a47.9,47.9,0,0,1-2.417-20.152l-.024.034.275-.275-.031.024.771-.514-.033.029.275-.277Z" transform="translate(-551.468 -142.85)"/><path class="a" d="M2642.635,1238.592c.016,3.429.042,6.858.033,10.286a1.421,1.421,0,0,1-.351.971c-2.112,1.854-4.26,3.667-6.49,5.572-1.485-1.645-2.9-3.21-4.315-4.779-1.366-1.516-2.7-3.063-4.1-4.543-.546-.575-.535-.923.005-1.5,1.837-1.969,3.61-4,5.408-6Z" transform="translate(-622.947)"/><path class="a" d="M2750.631,1383.591c.007-.572.019-1.143.019-1.714q0-70.785,0-141.569c0-.572-.012-1.144-.019-1.716h1.226v144.754l-.245.245Z" transform="translate(-695.368)"/><path class="a" d="M1564.819,1238.592q.008,5.148.015,10.3,0,66.555,0,133.11c0,.531-.01,1.062-.015,1.593h-.981l-.246-.245V1238.592Z"/><path class="a" d="M2479.252,1532.777c-6.24-12.627-5.815-24.78,2.633-36.334.828-1.132,1.85-2.123,2.782-3.18-.276.585-.531,1.18-.831,1.753a34.473,34.473,0,0,0-3.886,20.84,53.5,53.5,0,0,0,4.993,15.552,11.472,11.472,0,0,1,.443,1.37Z" transform="translate(-533.903 -149.186)"/><path class="a" d="M2376.868,1578.013c3.138-.715,6.264-1.487,9.416-2.133,8.757-1.8,17.528-3.523,26.285-5.321.959-.2,1.326-.05,1.612.964.618,2.195,1.445,4.33,2.187,6.49Z" transform="translate(-476.417 -194.422)"/><path class="a" d="M2227.311,1238.592c.021.489.058.978.058,1.466q0,70.971,0,141.943c0,.53-.038,1.06-.058,1.59h-.981c-.021-.571-.058-1.142-.058-1.713q0-70.849,0-141.7c0-.53.038-1.059.058-1.589Z" transform="translate(-388.197)"/><path class="a" d="M1663.563,1449.7h-12.546v-71.342c2.969,0,5.866-.11,8.75.039a4.113,4.113,0,0,1,3.659,3.594,11.432,11.432,0,0,1,.132,1.829q.014,10.117.006,20.235v1.432c.573-.516,1.039-.883,1.445-1.308,4.319-4.521,9.676-5.977,15.742-5.355,10.32,1.058,16.233,8.32,17.494,17.852a36.237,36.237,0,0,1,.288,4.64c.026,8.993.013,17.986.013,26.979v1.4h-12.523v-1.55c0-8.053.024-16.106-.019-24.159a20.88,20.88,0,0,0-.456-4.616c-1.384-5.906-6.453-9.124-12.515-8.044a13.225,13.225,0,0,0-8.555,5.027,4.543,4.543,0,0,0-.875,2.541c-.061,9.729-.038,19.458-.038,29.187Z" transform="translate(-51.214 -81.851)"/><path class="a" d="M1828.9,1456.719h-36.85c-.314,3.579,3.433,8.63,7.573,10.365,5.413,2.27,14.044,1.335,18.343-4.755l10.1,6.552a46.909,46.909,0,0,1-3.545,4.221c-3.718,3.521-8.313,5.246-13.294,6.024-6.375.995-12.615.594-18.312-2.688-9.789-5.641-14.128-14.324-13.346-25.482a25.013,25.013,0,0,1,17.8-22.35c12.3-3.816,25.023,1.766,29.987,13.15C1829.431,1446.518,1829.623,1451.474,1828.9,1456.719Zm-12.8-9.449c-.224-5.047-5.063-9.288-10.682-9.47-6.65-.215-12.446,3.982-13.022,9.47Z" transform="translate(-126.469 -110.61)"/><path class="a" d="M2066.06,1479.969c-4.129,0-8.014-.165-11.876.061a4.951,4.951,0,0,1-5.03-2.608c-2.755-4.244-5.793-8.3-8.8-12.564-.285.342-.523.593-.721.873-3.165,4.467-6.311,8.947-9.506,13.392a1.987,1.987,0,0,1-1.32.81c-4.5.059-8.992.036-13.488.032-.149,0-.3-.032-.652-.073,1.115-1.584,2.132-3.041,3.161-4.49q7.168-10.091,14.361-20.165a1.443,1.443,0,0,0-.017-2.009q-7.853-11.031-15.631-22.116c-.225-.32-.426-.656-.741-1.142.582-.031.97-.07,1.358-.07,4.128,0,8.257.02,12.385-.021a2.026,2.026,0,0,1,1.913.972c2.728,3.925,5.514,7.809,8.281,11.707.186.262.386.515.669.892.357-.483.668-.888.963-1.305,2.671-3.765,5.352-7.523,8-11.306a1.929,1.929,0,0,1,1.8-.962c4.128.048,8.256.02,12.385.024.351,0,.7.04,1.271.075-.338.51-.567.873-.814,1.224q-7.728,10.971-15.481,21.925a1.435,1.435,0,0,0-.012,2q8.359,11.725,16.648,23.5C2065.41,1478.986,2065.649,1479.358,2066.06,1479.969Z" transform="translate(-264.237 -112.053)"/><path class="a" d="M1913.23,1378.424H1925.7V1380c0,17.367.082,34.735-.052,52.1-.039,5,3.536,7.735,7.625,6.7.066-.016.15.041.365.107.1,1.647.2,3.344.3,5.042.1,1.752.177,3.507.3,5.257.051.693-.156.983-.879,1.157-10.247,2.461-19.108-3.928-19.977-14.456-.107-1.3-.155-2.61-.156-3.914q-.015-25.867-.007-51.733Z" transform="translate(-204.818 -81.914)"/><path class="a" d="M1975.61,1480.034V1430.2c3.076,0,6.09-.175,9.072.061,2,.159,3.274,2.011,3.315,4.109.037,1.92.009,3.841.009,5.761v39.907Z" transform="translate(-241.36 -112.205)"/><path class="a" d="M1671.568,1293.544V1273.81c1.5,0,2.882-.087,4.248.027,1.092.091,1.582.926,1.659,1.968.045.61.014,1.226.014,1.839v27.729c-1.658,0-3.2.049-4.728-.039-.336-.019-.714-.478-.954-.817q-6.359-9.011-12.686-18.045c-.183-.261-.383-.511-.793-1.056v19.88h-5.842v-31.54c1.558,0,3.13-.052,4.694.043.322.019.66.551.907.9q6.191,8.829,12.359,17.674c.293.419.6.83.9,1.244Z" transform="translate(-52.074 -20.591)"/><path class="a" d="M1796.084,1309.8c1.055-3.333,2.015-6.4,3-9.461.423-1.311.546-3.075,1.461-3.769.865-.656,2.589-.184,3.936-.2.559-.008,1.118,0,1.85,0-.8,2.229-1.542,4.294-2.287,6.356-1.788,4.951-3.6,9.9-5.348,14.859a1.25,1.25,0,0,1-1.4.988c-3.406.007-3.41.034-4.609-3.222-1.21-3.288-2.412-6.579-3.716-10.136-1.171,3.132-2.245,6.006-3.319,8.881a30.084,30.084,0,0,1-1.441,3.769c-.783,1.458-2.266.429-3.411.667-.565.117-1.168.149-1.463-.681-2.486-7-5.015-13.979-7.528-20.966a3.579,3.579,0,0,1-.08-.51c1.821,0,3.6-.046,5.374.045.3.016.7.586.823.974,1.209,3.683,2.369,7.381,3.543,11.076.1.309.2.618.4,1.24.243-.586.4-.918.521-1.262,1.309-3.648,2.634-7.291,3.9-10.954.274-.792.59-1.163,1.521-1.151,3.3.044,3.3,0,4.447,3.1C1793.506,1302.8,1794.744,1306.167,1796.084,1309.8Z" transform="translate(-121.928 -33.761)"/><path class="a" d="M1930.6,1295.775v22.253h-5.457v-2.086c-.169-.022-.286-.069-.314-.037-3.1,3.5-9.843,3.92-13.993-.587a12.762,12.762,0,0,1-.279-16.218c3.261-3.787,9.52-5.362,14.287-1,.375-.611.649-1.64,1.158-1.775A30.735,30.735,0,0,1,1930.6,1295.775Zm-5.489,11.355a14.35,14.35,0,0,0-.026-2.2,4.076,4.076,0,0,0-.67-1.873,6.635,6.635,0,0,0-7.584-1.686,6.247,6.247,0,0,0-3.554,6.284,6.05,6.05,0,0,0,5.3,5.569,7.086,7.086,0,0,0,5.249-1.53c1.488-1.046,1.3-2.5,1.288-3.954C1925.106,1307.538,1925.107,1307.333,1925.107,1307.13Z" transform="translate(-201.627 -33.319)"/><path class="a" d="M2104.7,1308.5h-16.237a5.462,5.462,0,0,0,3.67,4.617,6.89,6.89,0,0,0,7.858-2.159l4.478,2.91a19.946,19.946,0,0,1-1.631,1.932c-6.313,5.777-17.164,2.725-19.512-5.471a11.614,11.614,0,0,1,4.491-12.876,11.341,11.341,0,0,1,13.184.341A10.538,10.538,0,0,1,2104.7,1308.5Zm-15.946-4.263h10.268a4.6,4.6,0,0,0-4.494-4.057A5.216,5.216,0,0,0,2088.752,1304.232Z" transform="translate(-304.182 -33.338)"/><path class="a" d="M1724.941,1308.493c.513,2.313,1.627,3.937,3.764,4.624a6.858,6.858,0,0,0,7.792-2.191l4.487,2.921a18.481,18.481,0,0,1-1.893,2.153c-5.2,4.31-16.705,4.059-19.362-6.136a11.446,11.446,0,0,1,5.08-12.736,11.19,11.19,0,0,1,13.13,1.01c2.916,2.554,3.807,5.867,3.5,9.616-.065.809-.574.741-1.115.741q-6.924,0-13.847,0Zm.37-4.289h10.176a4.555,4.555,0,0,0-4.6-4.051C1728.017,1300.033,1725.722,1301.677,1725.311,1304.2Z" transform="translate(-91.24 -33.318)"/><path class="a" d="M1983.505,1302.09c-2.1-.656-4.043-1.358-6.037-1.839a4.174,4.174,0,0,0-2.485.27,2.241,2.241,0,0,0-1.076,1.568,1.8,1.8,0,0,0,.957,1.354c1.182.531,2.466.83,3.7,1.257a28.106,28.106,0,0,1,4.115,1.532,6.12,6.12,0,0,1,1.088,10.184,9.243,9.243,0,0,1-6.221,2.178,15.782,15.782,0,0,1-10.174-3.183l2.164-4.192a12.294,12.294,0,0,0,7.228,2.606,5.57,5.57,0,0,0,2.568-.567,1.5,1.5,0,0,0-.1-2.842,34.382,34.382,0,0,0-3.846-1.2c-1.091-.332-2.2-.608-3.264-1.022a5.573,5.573,0,0,1-3.893-5.021,6.323,6.323,0,0,1,2.948-6.082c3.224-2.111,6.734-2,10.261-1a16.822,16.822,0,0,1,3.414,1.594,1.123,1.123,0,0,1,.323,1.045C1984.636,1299.965,1983.986,1301.144,1983.505,1302.09Z" transform="translate(-236.533 -33.28)"/><path class="a" d="M1875.124,1301.075l-4.6,2.594a5.982,5.982,0,0,0-9.551-.737,6.451,6.451,0,0,0,.823,9.093,6.264,6.264,0,0,0,9.141-1.835c.786.334,1.6.668,2.4,1.023s1.613.74,2.4,1.105c-1.212,4.084-6.454,6.822-11.784,6.232a11.587,11.587,0,0,1-1.152-22.74C1867.838,1294.644,1873.371,1296.951,1875.124,1301.075Z" transform="translate(-170.095 -33.341)"/><path class="a" d="M2019.138,1282.591h5.587v5.757h5.622c0,1.33.095,2.549-.026,3.747-.124,1.224-1.057,1.67-2.188,1.7-1.054.029-2.11.006-3.372.006,0,1.221,0,2.345,0,3.469.005,1.592-.046,3.188.037,4.777.133,2.532,1.838,3.894,4.357,3.587.355-.043.715-.052,1.2-.085.08,1.529.2,2.984.193,4.439,0,.239-.493.621-.813.695-4.474,1.027-10.272-.973-10.556-7.771-.124-2.97-.021-5.949-.021-9.088h-4.1v-5.4h4.082Z" transform="translate(-264.468 -25.775)"/><path class="a" d="M1979.435,1389.02a7.781,7.781,0,1,1,0-15.56,7.781,7.781,0,1,1,0,15.56Z" transform="translate(-238.994 -79.006)"/><path class="a" d="M2063.93,1273.665v1.517q0,11.024,0,22.047c0,2.43.891,3.3,3.525,3.267.044.784.106,1.581.128,2.378.022.814,0,1.629,0,2.468-3.269,1.336-6.906-.248-8.039-2.781a12.625,12.625,0,0,1-1.17-4.8c-.12-7.592-.038-15.188-.072-22.782,0-.983.23-1.4,1.287-1.337C2060.972,1273.728,2062.357,1273.665,2063.93,1273.665Z" transform="translate(-289.805 -20.53)"/><path class="a" d="M2398.481,1354.763c.908-2.134,1.736-4.307,2.739-6.4,4.282-8.914,10.6-16.256,17.873-22.828,8.634-7.8,18.232-14.35,27.646-21.137,3.944-2.844,7.913-5.654,11.872-8.479.359-.256.726-.5,1.209-.832a4.18,4.18,0,0,1,.125.657c0,3.72-.028,7.44.018,11.16.011.846-.512,1.108-1.062,1.458-9.307,5.923-18.662,11.771-27.9,17.8a118.6,118.6,0,0,0-22.545,18.417c-5.647,6.1-10.163,12.888-12.621,20.907-.244.8-.754.951-1.426,1.044-5.461.754-10.925,1.48-16.379,2.281q-16.847,2.475-33.684,5.026c-9.485,1.455-18.955,3.006-28.433,4.509a6.027,6.027,0,0,1-.832.005v-19.048c27.985-3.637,55.965-7.209,84.266-9.993-.362,1.914-.689,3.645-1.016,5.377Z" transform="translate(-440.222 -33.098)"/><path class="a" d="M2315.088,1373.861l52.02-3.24c.236,4.6.466,9.092.7,13.621l-52.718,5.3Z" transform="translate(-440.226 -77.343)"/><path class="a" d="M2420.845,1502.123c-.765.917-1.337,1.591-1.9,2.275a32.369,32.369,0,0,0-7.044,14.375,1.3,1.3,0,0,1-1.23,1.208q-14.385,2.709-28.765,5.455c-2.039.388-4.075.792-6.285,1.223-.643-5.539-1.274-10.985-1.928-16.619Z" transform="translate(-474.561 -154.377)"/><path class="a" d="M2520.983,1316.984c.732-2.421,1.389-4.866,2.208-7.257a71.127,71.127,0,0,1,15.254-25.067c6.24-6.809,12.652-13.461,19.041-20.131,1.523-1.59,3.259-2.976,4.992-4.543l8.485,9.433c-.367.329-.677.624-1,.9-8.7,7.251-17.462,14.42-26.07,21.775-7.5,6.411-14.121,13.654-18.856,22.39-1.859,3.43-3.206,7.139-4.773,10.727a6.017,6.017,0,0,1-.754,1.521l1.5-9.781Z" transform="translate(-559.974 -12.533)"/><path class="a" d="M2505.418,1401.717c.717-1.9,1.3-3.865,2.176-5.69,3.556-7.425,8.9-13.456,15.008-18.861,7.685-6.8,16.279-12.32,25.047-17.572,7.5-4.492,15.073-8.854,22.616-13.269.307-.179.638-.319,1.126-.561,0,3,.044,5.844-.054,8.681-.013.367-.717.8-1.182,1.047-7.3,3.931-14.654,7.758-21.9,11.775-5.571,3.087-11.1,6.264-16.5,9.65-10.391,6.525-19.865,14.083-26.363,24.775Z" transform="translate(-551.707 -62.781)"/><path class="a" d="M2315.011,1544.7v-17.481l18.184-3.241,1.941,16.695Z" transform="translate(-440.181 -167.181)"/><path class="a" d="M2606.451,1425.352l9.153-4.224c1.323,2.261,2.522,4.484,3.884,6.6,3.444,5.358,6.979,10.658,10.424,16.015a4.473,4.473,0,0,1,.7,2.234c.064,4.529.032,9.059-.143,13.676C2622.429,1448.314,2613.827,1437.4,2606.451,1425.352Z" transform="translate(-610.907 -106.93)"/><path class="a" d="M2551.194,1453.479l5.943-2.917,8.857,17.72-6.3,3.583Z" transform="translate(-578.537 -124.172)"/><path class="a" d="M2652.763,1421.165l-7.92-12.652,8.194-3.7v16.231Z" transform="translate(-633.397 -97.37)"/><path class="a" d="M2498.788,1492.727l-.52.253Z" transform="translate(-547.533 -148.872)"/><path class="a" d="M2505.286,1480.794l-.076.186.1-.162Z" transform="translate(-551.6 -141.882)"/></g></svg>