<svg xmlns="http://www.w3.org/2000/svg" xmlns:xlink="http://www.w3.org/1999/xlink" width="100" height="100" viewBox="0 0 100 100">
  <defs>
    <clipPath id="clip-Artboard_2">
      <rect width="100" height="100"/>
    </clipPath>
  </defs>
  <g id="Artboard_2" data-name="Artboard – 2" clip-path="url(#clip-Artboard_2)">
    <rect width="100" height="100" fill="#fff"/>
    <g id="Group_442" data-name="Group 442" transform="translate(-1224.927 -813.821)">
      <path id="Path_626" data-name="Path 626" d="M1314.967,848.162c0,39.754-35.451,61.184-40.047,61.184s-40.04-21.43-40.04-61.184c0-20.891,17.925-28.886,40.04-28.886S1314.967,827.271,1314.967,848.162Z" fill="none" stroke="#022a39" stroke-miterlimit="10" stroke-width="4"/>
      <path id="Path_627" data-name="Path 627" d="M1304.588,859.737a15.25,15.25,0,0,1-8.108,13.595,4.18,4.18,0,0,0-2.2,3.705v3.918a5.832,5.832,0,0,1-1.8,4,6.114,6.114,0,0,1-4.376,1.6c-4.636,0-8.394-4.536-10.05-4.536s-5.408,4.536-10.043,4.536a6.116,6.116,0,0,1-4.377-1.6,5.831,5.831,0,0,1-1.8-4v-3.918a4.181,4.181,0,0,0-2.2-3.705,15.252,15.252,0,0,1,11.773-28.008,15.94,15.94,0,0,1,1.657.632,10.8,10.8,0,0,0,4.5.958h.991a10.827,10.827,0,0,0,4.5-.958,16.471,16.471,0,0,1,1.649-.632,15.256,15.256,0,0,1,19.887,14.413Z" transform="translate(-3.137 -4.771)" fill="none" stroke="#022a39" stroke-miterlimit="10" stroke-width="4"/>
      <path id="Path_628" data-name="Path 628" d="M1249.105,847.363a4.3,4.3,0,1,1,5.116-5.83Z" transform="translate(-2.089 -3.702)" fill="none" stroke="#022a39" stroke-miterlimit="10" stroke-width="4"/>
      <circle id="Ellipse_82" data-name="Ellipse 82" cx="3.057" cy="3.057" r="3.057" transform="translate(1258.759 856.121)" fill="#022a39"/>
      <path id="Path_629" data-name="Path 629" d="M1317.415,847.363a4.3,4.3,0,1,0-5.112-5.83Z" transform="translate(-14.584 -3.701)" fill="none" stroke="#022a39" stroke-miterlimit="10" stroke-width="4"/>
      <path id="Path_630" data-name="Path 630" d="M1295.289,893.643c-4.955,4.949-9.146,8.154-14.426,8.154s-9.472-3.206-14.433-8.154h.013a6.116,6.116,0,0,0,4.377,1.6c4.635,0,8.393-4.536,10.043-4.536s5.414,4.536,10.05,4.536A6.115,6.115,0,0,0,1295.289,893.643Z" transform="translate(-5.943 -13.456)" fill="none" stroke="#022a39" stroke-linejoin="round" stroke-width="4"/>
      <path id="Path_631" data-name="Path 631" d="M1288.543,877.862l-5.441,4.125a.407.407,0,0,1-.49,0l-5.436-4.125a.406.406,0,0,1,.245-.73H1288.3A.406.406,0,0,1,1288.543,877.862Z" transform="translate(-7.937 -10.898)" fill="#022a39"/>
      <circle id="Ellipse_83" data-name="Ellipse 83" cx="3.057" cy="3.057" r="3.057" transform="translate(1284.972 856.121)" fill="#022a39"/>
    </g>
  </g>
</svg>
