<svg xmlns="http://www.w3.org/2000/svg" xmlns:xlink="http://www.w3.org/1999/xlink" width="100" height="100" viewBox="0 0 100 100">
  <defs>
    <clipPath id="clip-Artboard_4">
      <rect width="100" height="100"/>
    </clipPath>
  </defs>
  <g id="Artboard_4" data-name="Artboard – 4" clip-path="url(#clip-Artboard_4)">
    <rect width="100" height="100" fill="#fff"/>
    <g id="Challenges" transform="translate(-378.823 -1463.149)">
      <path id="Path_145" data-name="Path 145" d="M441.106,1518.784c-4.9,6.038-5.251,6.01-10.6-.022-1.689,1.452-3.16,3.424-5.11,4.216-2.572,1.046-3.736-1.594-5.489-3.882-.7,1.707-1.242,3-1.749,4.306-.542,1.4-1.048,2.808-1.69,4.539l-3.811-1.376c1.186-3.342,2.251-6.385,3.343-9.419,2.283-6.341,4.472-12.719,6.942-18.985a10.1,10.1,0,0,1,3.451-4.571,4.037,4.037,0,0,0,1.947-4.005c-.045-7.448-.035-14.9-.01-22.343.013-3.734.249-3.963,3.955-4,3.491-.031,6.984-.066,10.472.024,2.558.067,3.02.583,3.124,3.128.071,1.744.021,3.491.018,5.236-.01,4.827-.193,5.007-5.19,5.02-2.55.007-5.1,0-7.916,0a25.2,25.2,0,0,0-.376,2.813c-.049,2.559.078,5.124-.046,7.68-.145,2.963-.161,5.536,3.16,7.221,1.38.7,2.211,2.913,2.836,4.606,4.378,11.884,8.641,23.814,12.935,35.73q4.017,11.15,8.023,22.306c.314.875.666,1.741.907,2.636.655,2.435.11,3.234-2.341,3.467-.693.067-1.4.025-2.094.025q-12.741,0-25.484,0h-3.761l-.2-4.072H455.6C450.662,1545.338,445.968,1532.294,441.106,1518.784Zm-5.286-.635c3.357-3.99,3.521-4.251,2.742-6.456-1.429-4.044-2.977-8.047-4.408-12.092-.643-1.816-1.678-3.085-3.717-3.074s-3.078,1.317-3.7,3.115c-1.259,3.614-2.565,7.211-3.853,10.814-1.443,4.037-1.263,4.66,2.157,7.451C429.543,1512.124,430.465,1511.315,435.82,1518.148Zm5.7-45.966v-4.642h-8.884v4.642Z" transform="translate(9.571 0)" fill="#022a39"/>
      <path id="Path_146" data-name="Path 146" d="M410.627,1549.451c-6.166,0-12.333.039-18.5-.014-3.6-.031-4.243-.9-2.987-4.239,5.443-14.462,10.96-28.9,16.433-43.347.94-2.483,2.482-4.3,5.288-4.325,2.992-.025,4.522,1.971,5.494,4.546q7.391,19.564,14.8,39.119c.576,1.522,1.246,3.012,1.727,4.563.835,2.7.159,3.688-2.716,3.722-5.932.071-11.866.013-17.8.007-.583,0-1.164,0-1.745,0Zm.293-31.269c-1.3.8-2.327,1.88-3.432,1.971-1.2.1-2.469-.729-3.927-1.228l-9.9,26.236h34.523c-3.44-9.064-6.752-17.793-10.084-26.576C414.218,1521.088,413.868,1521.058,410.921,1518.182Zm4.13-2.914c.215-1.5.728-2.607.423-3.393-1.327-3.437-2.107-7.165-4.853-10.194a89.994,89.994,0,0,0-4.56,11.648c-.12.373.6,1.017.95,1.58C409.758,1512.246,410.835,1511.479,415.05,1515.268Z" transform="translate(0 13.625)" fill="#022a39"/>
      <path id="Path_147" data-name="Path 147" d="M429.612,1477.422l14.832.717v-6.576l-2.847-.639v-3.814c2.343,0,4.528-.133,6.689.042,1.7.137,2.367,1.3,1.929,2.987a5.794,5.794,0,0,1-.591,1.632c-1.317,2.08-1.049,3.977.031,6.158,1.514,3.061.633,4.281-2.805,4.329-4.526.064-9.054.05-13.58.006C429.724,1482.229,429.314,1481.685,429.612,1477.422Z" transform="translate(16.27 1.53)" fill="#022a39"/>
    </g>
  </g>
</svg>
