<svg xmlns="http://www.w3.org/2000/svg" xmlns:xlink="http://www.w3.org/1999/xlink" width="100" height="100" viewBox="0 0 100 100">
  <defs>
    <clipPath id="clip-Artboard_3">
      <rect width="100" height="100"/>
    </clipPath>
  </defs>
  <g id="Artboard_3" data-name="Artboard – 3" clip-path="url(#clip-Artboard_3)">
    <rect width="100" height="100" fill="#fff"/>
    <g id="Group_446" data-name="Group 446" transform="translate(-28 -24.909)">
      <rect id="Rectangle_512" data-name="Rectangle 512" width="10.732" height="10.732" transform="translate(71.035 110.529)" fill="none" stroke="#022a39" stroke-miterlimit="10" stroke-width="4"/>
      <rect id="Rectangle_513" data-name="Rectangle 513" width="46.951" height="1.806" transform="translate(52.926 121.102)" fill="none" stroke="#022a39" stroke-miterlimit="10" stroke-width="4"/>
      <path id="Path_616" data-name="Path 616" d="M987.429,841.935a233.156,233.156,0,0,1-2.186,31.854,7.741,7.741,0,0,1-5.675,6.367,106.9,106.9,0,0,1-53.081,0,7.74,7.74,0,0,1-5.674-6.367,233.005,233.005,0,0,1-2.186-31.854c.088-9,2.226-25.068,3.389-33.193a7.739,7.739,0,0,1,5.962-6.445,128.361,128.361,0,0,1,50.1,0,7.738,7.738,0,0,1,5.962,6.445C985.2,816.868,987.342,832.934,987.429,841.935Z" transform="translate(-876.627 -772.921)" fill="none" stroke="#022a39" stroke-miterlimit="10" stroke-width="4"/>
      <g id="Group_439" data-name="Group 439" transform="translate(55.408 39.816)">
        <g id="Group_436" data-name="Group 436">
          <rect id="Rectangle_514" data-name="Rectangle 514" width="41.866" height="58.762" rx="0.744" fill="none" stroke="#022a39" stroke-miterlimit="10" stroke-width="4"/>
        </g>
      </g>
    </g>
  </g>
</svg>
